<?xml version="1.0" encoding="UTF-8"?>
<svg width="169px" height="54px" viewBox="0 0 169 54" version="1.1" xmlns="http://www.w3.org/2000/svg" xmlns:xlink="http://www.w3.org/1999/xlink">
    <!-- Generator: Sketch 47.1 (45422) - http://www.bohemiancoding.com/sketch -->
    <title>Birdie logo</title>
    <desc>Created with Sketch.</desc>
    <defs></defs>
    <g id="Page-1" stroke="none" stroke-width="1" fill="none" fill-rule="evenodd">
        <g id="Index-page" transform="translate(-80.000000, -14.000000)" fill="#A197CE">
            <g id="Birdie-logo" transform="translate(80.000000, 14.000000)">
                <g id="birdie" fill-rule="nonzero">
                    <path d="M58,18.5075672 L48.2446435,18.8205236 C46.4531477,20.5238889 44.1330491,21.5716562 41.6644547,21.7921676 C41.6644547,21.7921676 40.1047868,39.3797425 28.7368309,43.3825563 L28.7368309,50.7377536 L32.0149613,53.9985578 L28.7368309,51.8943945 L28.7368309,53.9985578 L28.0400197,52.0876487 L26.2947289,53.9985578 L27.9421326,50.3519663 L27.9421326,43.6363827 C25.8727267,44.2247985 23.4973329,44.376229 20.7709957,43.9248218 L20.7709957,50.3534085 L22.4183995,54 L20.6781842,52.0890909 L19.9813731,54 L19.9813731,51.8958367 L16.7017925,54 L19.9813731,50.7391958 L19.9813731,43.7741123 C18.5982209,43.4848516 17.2404283,43.086508 15.9208709,42.5828588 L15.9208709,42.5828588 C15.751925,42.5388718 6.40551908,40.0395469 1.12251571,33.9253588 C-2.62184737,29.1509704 4.19037013,32.6994926 4.31943609,32.7716024 C4.21284791,32.6771386 -1.3275623,27.7880956 5.87112799,30.7467598 C5.78991795,30.6645547 1.46983367,26.2442253 7.472126,29.1567392 C13.3982839,32.0324772 26.724707,21.7402485 27.2728748,21.3133586 L27.2895519,21.3003789 L27.2895519,21.3003789 C30.0361916,19.1226636 32.0570165,17.69489 32.0570165,17.69489 C31.3697818,16.8338949 30.8177598,15.874269 30.419764,14.848717 C30.419764,14.848717 26.4150938,12.2347375 21.7614682,10.9165708 C23.894682,9.69647336 29.6859733,11.9455773 29.6859733,11.9455773 C29.6859733,11.9455773 25.7335095,9.34385654 21.7614682,8.57228191 C23.4886318,7.23680882 29.5576324,8.5441591 29.6845231,8.57228191 C29.602588,8.50738311 26.9378834,6.44576455 21.7614682,6.06646712 C24.088281,4.91271067 31.4979724,4.91271067 31.4979724,4.91271067 C31.4979724,4.91271067 27.3838136,3.58516965 21.7614682,4.91271067 C25.2317474,1.94106671 37.2341568,0.517619686 37.3748242,0.501034437 L37.3748242,0.501034437 C40.913396,-0.603027723 44.7732481,0.143325369 47.6380345,2.48556095 C50.5028209,4.82779653 51.9856336,8.44958042 51.5807811,12.1157564 L58,18.5075672 Z" id="Shape"></path>
                </g>
                <path d="M78.7490164,25.4150002 L78.7490164,31.1834001 C78.7490164,34.0676001 80.4628164,35.6978001 82.8872163,35.6978001 C85.7714163,35.6978001 87.3598162,33.6078001 87.3598162,29.5114002 C87.3598162,25.3732002 85.7296163,23.2832003 82.8872163,23.2832003 C80.3792164,23.2832003 78.7490164,25.4150002 78.7490164,25.4150002 Z M83.3470163,19.4376004 C88.6138162,19.4376004 91.8324162,22.6980003 91.8324162,29.5114002 C91.8324162,36.3248 88.5302162,39.5434 82.8872163,39.5434 C77.8294164,39.5434 74.2346165,36.7428 74.2346165,31.1834001 L74.2346165,11.4956005 C74.2346165,10.2416005 75.2378165,9.23840054 76.4918164,9.23840054 C77.7458164,9.23840054 78.7490164,10.2416005 78.7490164,11.4956005 L78.7490164,21.1096003 C79.5850164,20.2736003 81.3406164,19.4376004 83.3470163,19.4376004 Z M100.941344,21.9456003 C100.941344,20.6916003 99.9381441,19.6884004 98.6841442,19.6884004 C97.4301442,19.6884004 96.4269442,20.6916003 96.4269442,21.9456003 L96.4269442,37.0772 C96.4269442,38.3312 97.4301442,39.3344 98.6841442,39.3344 C99.9381441,39.3344 100.941344,38.3312 100.941344,37.0772 L100.941344,21.9456003 Z M98.6841442,17.4312004 C100.439744,17.4312004 101.401144,16.4280004 101.401144,14.7978004 C101.401144,12.8750005 100.439744,12.0390005 98.6841442,12.0390005 C96.9703442,12.0390005 96.0089442,12.8750005 96.0089442,14.7978004 C96.0089442,16.4280004 96.9703442,17.4312004 98.6841442,17.4312004 Z M110.677272,21.9456003 C110.677272,20.6916003 109.674072,19.6884004 108.420072,19.6884004 C107.166072,19.6884004 106.162872,20.6916003 106.162872,21.9456003 L106.162872,37.0772 C106.162872,38.3312 107.166072,39.3344 108.420072,39.3344 C109.674072,39.3344 110.677272,38.3312 110.677272,37.0772 L110.677272,28.3828002 C110.677272,25.5822002 112.307472,23.7430003 115.191672,23.7430003 C116.362072,23.7430003 117.323472,22.7816003 117.323472,21.6112003 C117.323472,20.4408003 116.362072,19.4794004 115.191672,19.4794004 C113.436072,19.4794004 111.471472,20.5244003 110.677272,22.1546003 L110.677272,21.9456003 Z M132.7442,31.1834001 L132.7442,25.4150002 C132.7442,25.4150002 131.114,23.2832003 128.606,23.2832003 C125.7636,23.2832003 124.1334,25.3732002 124.1334,29.5114002 C124.1334,33.6078001 125.7218,35.6978001 128.606,35.6978001 C131.0304,35.6978001 132.7442,34.0676001 132.7442,31.1834001 Z M128.1462,19.4376004 C130.1526,19.4376004 131.9082,20.2736003 132.7442,21.1096003 L132.7442,11.4956005 C132.7442,10.2416005 133.7474,9.23840054 135.0014,9.23840054 C136.2554,9.23840054 137.2586,10.2416005 137.2586,11.4956005 L137.2586,31.1834001 C137.2586,36.7428 133.6638,39.5434 128.606,39.5434 C122.963,39.5434 119.6608,36.3248 119.6608,29.5114002 C119.6608,22.6980003 122.8794,19.4376004 128.1462,19.4376004 Z M146.994528,21.9456003 C146.994528,20.6916003 145.991328,19.6884004 144.737328,19.6884004 C143.483328,19.6884004 142.480128,20.6916003 142.480128,21.9456003 L142.480128,37.0772 C142.480128,38.3312 143.483328,39.3344 144.737328,39.3344 C145.991328,39.3344 146.994528,38.3312 146.994528,37.0772 L146.994528,21.9456003 Z M144.737328,17.4312004 C146.492928,17.4312004 147.454328,16.4280004 147.454328,14.7978004 C147.454328,12.8750005 146.492928,12.0390005 144.737328,12.0390005 C143.023528,12.0390005 142.062128,12.8750005 142.062128,14.7978004 C142.062128,16.4280004 143.023528,17.4312004 144.737328,17.4312004 Z M151.380056,29.4278002 C151.380056,23.0324003 154.724056,19.4376004 160.408856,19.4376004 C167.473055,19.4376004 168.768855,24.8716003 168.768855,27.7558002 C168.768855,29.3024002 168.768855,31.0998001 166.219055,31.0998001 L155.894456,31.0998001 C155.894456,34.1094001 158.026256,35.4888001 160.785056,35.4888001 C162.624255,35.4888001 163.920055,34.8618001 164.923255,34.1930001 C165.383055,33.9004001 165.717455,33.7332001 166.260855,33.7332001 C167.347655,33.7332001 168.225455,34.6110001 168.225455,35.6978001 C168.225455,36.3666 167.891055,36.91 167.514855,37.2444 C166.804255,37.9132 164.588855,39.5434 160.785056,39.5434 C154.974856,39.5434 151.380056,36.4084 151.380056,29.4278002 Z M160.408856,23.2832003 C157.984456,23.2832003 156.228856,24.6626003 156.019856,27.3378002 L164.296255,27.3378002 C164.296255,25.2896003 163.125855,23.2832003 160.408856,23.2832003 Z" id="birdie"></path>
            </g>
        </g>
    </g>
</svg>