<?xml version="1.0" encoding="UTF-8"?>
<svg width="200px" height="187px" viewBox="0 0 200 187" version="1.1" xmlns="http://www.w3.org/2000/svg" xmlns:xlink="http://www.w3.org/1999/xlink">
    <!-- Generator: Sketch 47.1 (45422) - http://www.bohemiancoding.com/sketch -->
    <title>birdie</title>
    <desc>Created with Sketch.</desc>
    <defs></defs>
    <g id="Page-1" stroke="none" stroke-width="1" fill="none" fill-rule="evenodd">
        <g id="Login-Page" transform="translate(-81.000000, -335.000000)" fill-rule="nonzero" fill="#FFFFFF">
            <g id="birdie" transform="translate(81.000000, 335.000000)">
                <path d="M200,64.0910196 L166.36084,65.1747762 C160.183268,71.073467 152.182928,74.7018466 143.670533,75.4654691 C143.670533,75.4654691 138.292368,136.37059 99.0925203,150.232186 L99.0925203,175.702962 L110.396418,186.995006 L99.0925203,179.708366 L99.0925203,186.995006 L96.6897232,180.377598 L90.6714789,186.995006 L96.3521814,174.366994 L96.3521814,151.111177 C89.2162989,153.148839 81.0252859,153.673237 71.6241232,152.110031 L71.6241232,174.371989 L77.3048257,187 L71.3040836,180.382592 L68.9012864,187 L68.9012864,179.71336 L57.5923878,187 L68.9012864,175.707956 L68.9012864,151.58813 C64.1317963,150.586431 59.4497528,149.206981 54.8995548,147.462863 L54.8995548,147.462863 C54.3169827,147.310538 22.0879968,138.655468 3.87074383,117.482261 C-9.040853,100.948731 14.4495522,113.237132 14.8946072,113.486845 C14.5270617,113.159721 -4.57780104,96.2291459 20.2452689,106.47489 C19.9652343,106.190217 5.06839195,90.8827801 25.7659517,100.968708 C46.200979,110.927282 92.1541622,75.2856754 94.044396,73.8073715 L94.1019031,73.7624231 L94.1019031,73.7624231 C103.573074,66.2210757 110.541436,61.2767486 110.541436,61.2767486 C108.171661,58.2951544 106.268137,54.9720056 104.895738,51.4205571 C104.895738,51.4205571 91.0865302,42.368443 75.0395456,37.8036804 C82.3954553,33.5785281 102.365425,41.3670919 102.365425,41.3670919 C102.365425,41.3670919 88.7362395,32.3574291 75.0395456,29.6854948 C80.9952822,25.0608009 101.92287,29.5881065 102.360424,29.6854948 C102.07789,29.4607526 92.8892531,22.3214439 75.0395456,21.007951 C83.0630379,17.0125351 108.613698,17.0125351 108.613698,17.0125351 C108.613698,17.0125351 94.4269433,12.4153097 75.0395456,17.0125351 C87.0060255,6.72184212 128.393644,1.7924978 128.878704,1.7350637 L128.878704,1.7350637 C141.080676,-2.08826267 154.390511,0.496330443 164.269084,8.60740552 C174.147658,16.7184806 179.260806,29.2605841 177.864762,41.9564157 L200,64.0910196 Z" id="Shape"></path>
            </g>
        </g>
    </g>
</svg>